<svg width="80" height="28" viewBox="0 0 80 28" fill="none" xmlns="http://www.w3.org/2000/svg">
<path d="M65.9719 27.7252C73.4809 27.7252 79.5909 21.5407 79.5909 13.9402C79.5909 6.33515 73.4809 0.155151 65.9719 0.155151C58.4613 0.155151 52.3529 6.33515 52.3529 13.9402C52.3529 21.5407 58.4613 27.7252 65.9719 27.7252ZM65.9719 9.02465C68.6479 9.02465 70.8273 11.2297 70.8273 13.9387C70.8273 16.6476 68.6464 18.8497 65.9704 18.8497C63.2928 18.8497 61.1164 16.6477 61.1164 13.9372C61.1164 11.2252 63.2943 9.02165 65.9704 9.02165L65.9719 9.02465ZM14.5896 27.7252C22.0987 27.7252 28.2086 21.5407 28.2086 13.9402C28.2086 6.33515 22.0987 0.155151 14.5896 0.155151C7.08198 0.155151 0.970581 6.33515 0.970581 13.9402C0.970581 21.5407 7.08198 27.7252 14.5896 27.7252ZM14.5896 9.02465C17.2671 9.02465 19.445 11.2297 19.445 13.9387C19.445 16.6476 17.2671 18.8497 14.5896 18.8497C11.9135 18.8497 9.73716 16.6477 9.73716 13.9372C9.73716 11.2252 11.915 9.02165 14.5896 9.02165V9.02465ZM40.2733 8.71415L36.0921 0.335151H26.3022L35.4462 18.6652V27.2947H45.1018V18.6652L54.2458 0.335151H44.4514L40.2748 8.71415H40.2733Z" fill="#EE2E24"/>
</svg>
