<svg width="18" height="19" viewBox="0 0 18 19" fill="none" xmlns="http://www.w3.org/2000/svg">
<path d="M3.66847 8.03015C2.86696 8.03015 2.21118 8.68593 2.21118 9.48744C2.21118 10.2889 2.86696 10.9447 3.66847 10.9447C4.46998 10.9447 5.12575 10.2889 5.12575 9.48744C5.12575 8.68593 4.46998 8.03015 3.66847 8.03015Z" fill="#7E8492"/>
<path d="M13.8695 8.03015C13.068 8.03015 12.4122 8.68593 12.4122 9.48744C12.4122 10.2889 13.068 10.9447 13.8695 10.9447C14.671 10.9447 15.3268 10.2889 15.3268 9.48744C15.3268 8.68593 14.671 8.03015 13.8695 8.03015Z" fill="#7E8492"/>
<path d="M8.76893 8.03015C7.96742 8.03015 7.31165 8.68593 7.31165 9.48744C7.31165 10.2889 7.96742 10.9447 8.76893 10.9447C9.57044 10.9447 10.2262 10.2889 10.2262 9.48744C10.2262 8.68593 9.57044 8.03015 8.76893 8.03015Z" fill="#7E8492"/>
</svg>
